<?xml version="1.0" encoding="UTF-8" standalone="no"?>
<!-- Created with Inkscape (http://www.inkscape.org/) -->

<svg
   xmlns:dc="http://purl.org/dc/elements/1.1/"
   xmlns:cc="http://creativecommons.org/ns#"
   xmlns:rdf="http://www.w3.org/1999/02/22-rdf-syntax-ns#"
   xmlns:svg="http://www.w3.org/2000/svg"
   xmlns="http://www.w3.org/2000/svg"
   xmlns:sodipodi="http://sodipodi.sourceforge.net/DTD/sodipodi-0.dtd"
   xmlns:inkscape="http://www.inkscape.org/namespaces/inkscape"
   id="svg2"
   version="1.1"
   inkscape:version="0.91 r13725"
   xml:space="preserve"
   width="667.125"
   height="681.25"
   viewBox="0 0 667.125 681.25"
   sodipodi:docname="Speicherverwaltung.svg"><metadata
     id="metadata8"><rdf:RDF><cc:Work
         rdf:about=""><dc:format>image/svg+xml</dc:format><dc:type
           rdf:resource="http://purl.org/dc/dcmitype/StillImage" /><dc:title /></cc:Work></rdf:RDF></metadata><defs
     id="defs6"><clipPath
       clipPathUnits="userSpaceOnUse"
       id="clipPath16"><path
         d="m 0,0.1 595.2,0 0,841.8 L 0,841.9 0,0.1 Z"
         id="path18"
         inkscape:connector-curvature="0"
         style="clip-rule:evenodd" /></clipPath></defs><sodipodi:namedview
     pagecolor="#ffffff"
     bordercolor="#666666"
     borderopacity="1"
     objecttolerance="10"
     gridtolerance="10"
     guidetolerance="10"
     inkscape:pageopacity="0"
     inkscape:pageshadow="2"
     inkscape:window-width="1855"
     inkscape:window-height="1056"
     id="namedview4"
     showgrid="false"
     fit-margin-top="0"
     fit-margin-left="0"
     fit-margin-right="0"
     fit-margin-bottom="0"
     inkscape:zoom="0.89691211"
     inkscape:cx="50.890275"
     inkscape:cy="271.8651"
     inkscape:window-x="65"
     inkscape:window-y="24"
     inkscape:window-maximized="1"
     inkscape:current-layer="g10" /><g
     id="g10"
     inkscape:groupmode="layer"
     inkscape:label="Speicherverwaltung"
     transform="matrix(1.25,0,0,-1.25,-49.125,1003.375)"><path
       d="m 306.1,258.1 -266.4,0 0,544.2 532.9,0 0,-544.2 -266.5,0 z"
       style="fill:#ffffff;fill-opacity:1;fill-rule:evenodd;stroke:none"
       id="path22"
       inkscape:connector-curvature="0" /><path
       inkscape:connector-curvature="0"
       id="path26"
       style="fill:none;stroke:#3465a4;stroke-width:0;stroke-linecap:butt;stroke-linejoin:round;stroke-miterlimit:10;stroke-dasharray:none;stroke-opacity:1"
       d="m 306.1,258.1 -266.4,0 0,544.2 532.9,0 0,-544.2 -266.5,0 z" /><path
       d="m 107.7,269.4 -22.7,0 0,340.2 45.4,0 0,-340.2 -22.7,0 z"
       style="fill:#ffccff;fill-opacity:1;fill-rule:evenodd;stroke:none"
       id="path28"
       inkscape:connector-curvature="0" /><path
       d="m 175.7,564.2 -45.3,0 0,45.4 90.7,0 0,-45.4 -45.4,0 z"
       style="fill:#83caff;fill-opacity:1;fill-rule:evenodd;stroke:none"
       id="path30"
       inkscape:connector-curvature="0" /><g
       id="g32"><path
         d="m 175.7,564.2 -45.3,0 0,45.4 90.7,0 0,-45.4 -45.4,0 z"
         style="fill:none;stroke:#000000;stroke-width:0.84899998;stroke-linecap:butt;stroke-linejoin:round;stroke-miterlimit:10;stroke-dasharray:none;stroke-opacity:1"
         id="path34"
         inkscape:connector-curvature="0" /></g><g
       id="g36"><text
         transform="matrix(1,0,0,-1,154.7,580.6)"
         style="font-variant:normal;font-weight:bold;font-size:18px;font-family:'Liberation Sans';-inkscape-font-specification:LiberationSans-Bold;writing-mode:lr-tb;fill:#000000;fill-opacity:1;fill-rule:nonzero;stroke:none"
         id="text38"><tspan
           x="0 5.0760002 16.056 26.063999 32.057999"
           y="0"
           sodipodi:role="line"
           id="tspan40">.data</tspan></text>
</g><path
       d="m 175.7,496.2 -45.3,0 0,68 90.7,0 0,-68 -45.4,0 z"
       style="fill:#ccffff;fill-opacity:1;fill-rule:evenodd;stroke:none"
       id="path42"
       inkscape:connector-curvature="0" /><g
       id="g44"><path
         d="m 175.7,496.2 -45.3,0 0,68 90.7,0 0,-68 -45.4,0 z"
         style="fill:none;stroke:#000000;stroke-width:0.84899998;stroke-linecap:butt;stroke-linejoin:round;stroke-miterlimit:10;stroke-dasharray:none;stroke-opacity:1"
         id="path46"
         inkscape:connector-curvature="0" /></g><g
       id="g48"><text
         transform="matrix(1,0,0,-1,157.7,523.9)"
         style="font-variant:normal;font-weight:bold;font-size:18px;font-family:'Liberation Sans';-inkscape-font-specification:LiberationSans-Bold;writing-mode:lr-tb;fill:#000000;fill-opacity:1;fill-rule:nonzero;stroke:none"
         id="text50"><tspan
           x="0 5.0760002 16.056 26.063999"
           y="0"
           sodipodi:role="line"
           id="tspan52">.bss</tspan></text>
</g><path
       d="m 175.7,326.1 -45.3,0 0,124.7 90.7,0 0,-124.7 -45.4,0 z"
       style="fill:#99ff66;fill-opacity:1;fill-rule:evenodd;stroke:none"
       id="path54"
       inkscape:connector-curvature="0" /><g
       id="g56"><path
         d="m 175.7,326.1 -45.3,0 0,124.7 90.7,0 0,-124.7 -45.4,0 z"
         style="fill:none;stroke:#000000;stroke-width:0.84899998;stroke-linecap:butt;stroke-linejoin:round;stroke-miterlimit:10;stroke-dasharray:none;stroke-opacity:1"
         id="path58"
         inkscape:connector-curvature="0" /></g><g
       id="g60"><text
         transform="matrix(1,0,0,-1,158.1,391.5)"
         style="font-variant:normal;font-weight:bold;font-size:14px;font-family:'Liberation Sans';-inkscape-font-specification:LiberationSans-Bold;writing-mode:lr-tb;fill:#000000;fill-opacity:1;fill-rule:nonzero;stroke:none"
         id="text62"><tspan
           x="0 4.6900001 10.178 17.962 21.952 29.736"
           y="0"
           sodipodi:role="line"
           id="tspan64">freier</tspan></text>
</g><g
       id="g66"><text
         transform="matrix(1,0,0,-1,146.1,375.7)"
         style="font-variant:normal;font-weight:bold;font-size:14px;font-family:'Liberation Sans';-inkscape-font-specification:LiberationSans-Bold;writing-mode:lr-tb;fill:#000000;fill-opacity:1;fill-rule:nonzero;stroke:none"
         id="text68"><tspan
           x="0 9.3800001 17.878 25.662001 29.652 37.436001 45.933998 53.717999"
           y="0"
           sodipodi:role="line"
           id="tspan70">Speicher</tspan></text>
</g><path
       d="m 175.7,269.4 -45.3,0 0,56.7 90.7,0 0,-56.7 -45.4,0 z"
       style="fill:#ffcccc;fill-opacity:1;fill-rule:evenodd;stroke:none"
       id="path72"
       inkscape:connector-curvature="0" /><g
       id="g74"><path
         d="m 175.7,269.4 -45.3,0 0,56.7 90.7,0 0,-56.7 -45.4,0 z"
         style="fill:none;stroke:#000000;stroke-width:0.84899998;stroke-linecap:butt;stroke-linejoin:round;stroke-miterlimit:10;stroke-dasharray:none;stroke-opacity:1"
         id="path76"
         inkscape:connector-curvature="0" /></g><g
       id="g78"><text
         transform="matrix(1,0,0,-1,151.8,291.5)"
         style="font-variant:normal;font-weight:bold;font-size:18px;font-family:'Liberation Sans';-inkscape-font-specification:LiberationSans-Bold;writing-mode:lr-tb;fill:#000000;fill-opacity:1;fill-rule:nonzero;stroke:none"
         id="text80"><tspan
           x="0 11.988 17.982 27.99 37.998001"
           y="0"
           sodipodi:role="line"
           id="tspan82">Stack</tspan></text>
</g><path
       d="m 175.7,450.8 -45.3,0 0,45.4 90.7,0 0,-45.4 -45.4,0 z"
       style="fill:#ffffcc;fill-opacity:1;fill-rule:evenodd;stroke:none"
       id="path84"
       inkscape:connector-curvature="0" /><g
       id="g86"><path
         d="m 175.7,450.8 -45.3,0 0,45.4 90.7,0 0,-45.4 -45.4,0 z"
         style="fill:none;stroke:#000000;stroke-width:0.84899998;stroke-linecap:butt;stroke-linejoin:round;stroke-miterlimit:10;stroke-dasharray:none;stroke-opacity:1"
         id="path88"
         inkscape:connector-curvature="0" /></g><g
       id="g90"><text
         transform="matrix(1,0,0,-1,153.8,467.2)"
         style="font-variant:normal;font-weight:bold;font-size:18px;font-family:'Liberation Sans';-inkscape-font-specification:LiberationSans-Bold;writing-mode:lr-tb;fill:#000000;fill-opacity:1;fill-rule:nonzero;stroke:none"
         id="text92"><tspan
           x="0 12.996 22.896 32.903999"
           y="0"
           sodipodi:role="line"
           id="tspan94">Heap</tspan></text>
</g><path
       d="m 73.7,722.9 0,-420.2"
       style="fill:none;stroke:#000000;stroke-width:0.8;stroke-linecap:butt;stroke-linejoin:miter;stroke-miterlimit:10;stroke-dasharray:none;stroke-opacity:1"
       id="path96"
       inkscape:connector-curvature="0" /><path
       d="m 69.4,303.2 8.6,0 -4.3,-22.5 -4.3,22.5 z"
       style="fill:#000000;fill-opacity:1;fill-rule:evenodd;stroke:none"
       id="path98"
       inkscape:connector-curvature="0" /><text
       transform="scale(1,-1)"
       style="font-variant:normal;font-weight:bold;font-size:14px;font-family:'Liberation Sans';-inkscape-font-specification:LiberationSans-Bold;writing-mode:lr-tb;fill:#000000;fill-opacity:1;fill-rule:nonzero;stroke:none"
       id="text100"
       x="73.5"
       y="-745.29999"><tspan
         x="73.5 83.692001 92.190002 97.678001 105.462 113.246 121.03"
         y="-745.29999"
         sodipodi:role="line"
         id="tspan102">Adresse</tspan></text>
<g
       id="g104"><path
         d="m 252.3,462.2 0,-23.5"
         style="fill:none;stroke:#000000;stroke-width:2.82999992;stroke-linecap:butt;stroke-linejoin:round;stroke-miterlimit:10;stroke-dasharray:none;stroke-opacity:1"
         id="path106"
         inkscape:connector-curvature="0" /></g><path
       d="m 248,439.3 8.5,0 -4.2,-22.5 -4.3,22.5 z"
       style="fill:#000000;fill-opacity:1;fill-rule:evenodd;stroke:none"
       id="path108"
       inkscape:connector-curvature="0" /><g
       id="g110"><path
         d="m 252.3,318.3 0,19.9"
         style="fill:none;stroke:#000000;stroke-width:2.82999992;stroke-linecap:butt;stroke-linejoin:round;stroke-miterlimit:10;stroke-dasharray:none;stroke-opacity:1"
         id="path112"
         inkscape:connector-curvature="0" /></g><path
       d="m 256.5,337.6 -8.5,0 4.3,22.5 4.2,-22.5 z"
       style="fill:#000000;fill-opacity:1;fill-rule:evenodd;stroke:none"
       id="path114"
       inkscape:connector-curvature="0" /><g
       id="g116"><path
         d="M 561.3,609.6 85,609.6"
         style="fill:none;stroke:#000000;stroke-width:0.80000001;stroke-linecap:butt;stroke-linejoin:round;stroke-miterlimit:10;stroke-dasharray:1.4433, 1.4433, 1.4433, 1.4433;stroke-dashoffset:0;stroke-opacity:1"
         id="path118"
         inkscape:connector-curvature="0" /></g><g
       id="g120"><path
         d="M 561.3,269.4 51,269.4"
         style="fill:none;stroke:#000000;stroke-width:0.80000001;stroke-linecap:butt;stroke-linejoin:round;stroke-miterlimit:10;stroke-dasharray:1.4433, 1.4433, 1.4433, 1.4433;stroke-dashoffset:0;stroke-opacity:1"
         id="path122"
         inkscape:connector-curvature="0" /></g><path
       d="m 328.8,564.2 -45.3,0 0,45.4 90.7,0 0,-45.4 -45.4,0 z"
       style="fill:#83caff;fill-opacity:1;fill-rule:evenodd;stroke:none"
       id="path124"
       inkscape:connector-curvature="0" /><g
       id="g126"><path
         d="m 328.8,564.2 -45.3,0 0,45.4 90.7,0 0,-45.4 -45.4,0 z"
         style="fill:none;stroke:#000000;stroke-width:0.84899998;stroke-linecap:butt;stroke-linejoin:round;stroke-miterlimit:10;stroke-dasharray:none;stroke-opacity:1"
         id="path128"
         inkscape:connector-curvature="0" /></g><g
       id="g130"><text
         transform="matrix(1,0,0,-1,307.8,580.6)"
         style="font-variant:normal;font-weight:bold;font-size:18px;font-family:'Liberation Sans';-inkscape-font-specification:LiberationSans-Bold;writing-mode:lr-tb;fill:#000000;fill-opacity:1;fill-rule:nonzero;stroke:none"
         id="text132"><tspan
           x="0 5.0760002 16.056 26.063999 31.968"
           y="0"
           sodipodi:role="line"
           id="tspan134">.data</tspan></text>
</g><path
       d="m 328.8,496.2 -45.3,0 0,68 90.7,0 0,-68 -45.4,0 z"
       style="fill:#ccffff;fill-opacity:1;fill-rule:evenodd;stroke:none"
       id="path136"
       inkscape:connector-curvature="0" /><g
       id="g138"><path
         d="m 328.8,496.2 -45.3,0 0,68 90.7,0 0,-68 -45.4,0 z"
         style="fill:none;stroke:#000000;stroke-width:0.84899998;stroke-linecap:butt;stroke-linejoin:round;stroke-miterlimit:10;stroke-dasharray:none;stroke-opacity:1"
         id="path140"
         inkscape:connector-curvature="0" /></g><g
       id="g142"><text
         transform="matrix(1,0,0,-1,310.8,523.9)"
         style="font-variant:normal;font-weight:bold;font-size:18px;font-family:'Liberation Sans';-inkscape-font-specification:LiberationSans-Bold;writing-mode:lr-tb;fill:#000000;fill-opacity:1;fill-rule:nonzero;stroke:none"
         id="text144"><tspan
           x="0 5.0760002 16.056 26.063999"
           y="0"
           sodipodi:role="line"
           id="tspan146">.bss</tspan></text>
</g><path
       d="m 328.8,360.1 -45.3,0 0,45.4 90.7,0 0,-45.4 -45.4,0 z"
       style="fill:#99ff66;fill-opacity:1;fill-rule:evenodd;stroke:none"
       id="path148"
       inkscape:connector-curvature="0" /><g
       id="g150"><path
         d="m 328.8,360.1 -45.3,0 0,45.4 90.7,0 0,-45.4 -45.4,0 z"
         style="fill:none;stroke:#000000;stroke-width:0.84899998;stroke-linecap:butt;stroke-linejoin:round;stroke-miterlimit:10;stroke-dasharray:none;stroke-opacity:1"
         id="path152"
         inkscape:connector-curvature="0" /></g><g
       id="g154"><text
         transform="matrix(1,0,0,-1,311.2,385.8)"
         style="font-variant:normal;font-weight:bold;font-size:14px;font-family:'Liberation Sans';-inkscape-font-specification:LiberationSans-Bold;writing-mode:lr-tb;fill:#000000;fill-opacity:1;fill-rule:nonzero;stroke:none"
         id="text156"><tspan
           x="0 4.6900001 10.178 17.962 21.952 29.736"
           y="0"
           sodipodi:role="line"
           id="tspan158">freier</tspan></text>
</g><g
       id="g160"><text
         transform="matrix(1,0,0,-1,299.2,370.1)"
         style="font-variant:normal;font-weight:bold;font-size:14px;font-family:'Liberation Sans';-inkscape-font-specification:LiberationSans-Bold;writing-mode:lr-tb;fill:#000000;fill-opacity:1;fill-rule:nonzero;stroke:none"
         id="text162"><tspan
           x="0 9.3800001 17.878 25.662001 29.554001 37.338001 45.835999 53.717999"
           y="0"
           sodipodi:role="line"
           id="tspan164">Speicher</tspan></text>
</g><path
       d="m 328.8,269.4 -45.3,0 0,90.7 90.7,0 0,-90.7 -45.4,0 z"
       style="fill:#ffcccc;fill-opacity:1;fill-rule:evenodd;stroke:none"
       id="path166"
       inkscape:connector-curvature="0" /><g
       id="g168"><path
         d="m 328.8,269.4 -45.3,0 0,90.7 90.7,0 0,-90.7 -45.4,0 z"
         style="fill:none;stroke:#000000;stroke-width:0.84899998;stroke-linecap:butt;stroke-linejoin:round;stroke-miterlimit:10;stroke-dasharray:none;stroke-opacity:1"
         id="path170"
         inkscape:connector-curvature="0" /></g><g
       id="g172"><text
         transform="matrix(1,0,0,-1,304.9,308.5)"
         style="font-variant:normal;font-weight:bold;font-size:18px;font-family:'Liberation Sans';-inkscape-font-specification:LiberationSans-Bold;writing-mode:lr-tb;fill:#000000;fill-opacity:1;fill-rule:nonzero;stroke:none"
         id="text174"><tspan
           x="0 11.988 17.982 27.882 37.889999"
           y="0"
           sodipodi:role="line"
           id="tspan176">Stack</tspan></text>
</g><path
       d="m 328.8,405.5 -45.3,0 0,90.7 90.7,0 0,-90.7 -45.4,0 z"
       style="fill:#ffffcc;fill-opacity:1;fill-rule:evenodd;stroke:none"
       id="path178"
       inkscape:connector-curvature="0" /><g
       id="g180"><path
         d="m 328.8,405.5 -45.3,0 0,90.7 90.7,0 0,-90.7 -45.4,0 z"
         style="fill:none;stroke:#000000;stroke-width:0.84899998;stroke-linecap:butt;stroke-linejoin:round;stroke-miterlimit:10;stroke-dasharray:none;stroke-opacity:1"
         id="path182"
         inkscape:connector-curvature="0" /></g><g
       id="g184"><text
         transform="matrix(1,0,0,-1,306.9,444.6)"
         style="font-variant:normal;font-weight:bold;font-size:18px;font-family:'Liberation Sans';-inkscape-font-specification:LiberationSans-Bold;writing-mode:lr-tb;fill:#000000;fill-opacity:1;fill-rule:nonzero;stroke:none"
         id="text186"><tspan
           x="0 12.906 22.914 32.922001"
           y="0"
           sodipodi:role="line"
           id="tspan188">Heap</tspan></text>
</g><path
       d="m 493.2,564.2 -45.3,0 0,45.4 90.7,0 0,-45.4 -45.4,0 z"
       style="fill:#83caff;fill-opacity:1;fill-rule:evenodd;stroke:none"
       id="path190"
       inkscape:connector-curvature="0" /><g
       id="g192"><path
         d="m 493.2,564.2 -45.3,0 0,45.4 90.7,0 0,-45.4 -45.4,0 z"
         style="fill:none;stroke:#000000;stroke-width:0.84899998;stroke-linecap:butt;stroke-linejoin:round;stroke-miterlimit:10;stroke-dasharray:none;stroke-opacity:1"
         id="path194"
         inkscape:connector-curvature="0" /></g><g
       id="g196"><text
         transform="matrix(1,0,0,-1,472.2,580.6)"
         style="font-variant:normal;font-weight:bold;font-size:18px;font-family:'Liberation Sans';-inkscape-font-specification:LiberationSans-Bold;writing-mode:lr-tb;fill:#000000;fill-opacity:1;fill-rule:nonzero;stroke:none"
         id="text198"><tspan
           x="0 5.0760002 16.056 26.063999 32.057999"
           y="0"
           sodipodi:role="line"
           id="tspan200">.data</tspan></text>
</g><path
       d="m 493.2,496.2 -45.3,0 0,68 90.7,0 0,-68 -45.4,0 z"
       style="fill:#ccffff;fill-opacity:1;fill-rule:evenodd;stroke:none"
       id="path202"
       inkscape:connector-curvature="0" /><g
       id="g204"><path
         d="m 493.2,496.2 -45.3,0 0,68 90.7,0 0,-68 -45.4,0 z"
         style="fill:none;stroke:#000000;stroke-width:0.84899998;stroke-linecap:butt;stroke-linejoin:round;stroke-miterlimit:10;stroke-dasharray:none;stroke-opacity:1"
         id="path206"
         inkscape:connector-curvature="0" /></g><g
       id="g208"><text
         transform="matrix(1,0,0,-1,475.2,523.9)"
         style="font-variant:normal;font-weight:bold;font-size:18px;font-family:'Liberation Sans';-inkscape-font-specification:LiberationSans-Bold;writing-mode:lr-tb;fill:#000000;fill-opacity:1;fill-rule:nonzero;stroke:none"
         id="text210"><tspan
           x="0 5.0760002 16.056 26.063999"
           y="0"
           sodipodi:role="line"
           id="tspan212">.bss</tspan></text>
</g><path
       d="m 493.2,405.5 -45.3,0 0,90.7 90.7,0 0,-90.7 -45.4,0 z"
       style="fill:#ffffcc;fill-opacity:1;fill-rule:evenodd;stroke:none"
       id="path214"
       inkscape:connector-curvature="0" /><g
       id="g216"><path
         d="m 493.2,405.5 -45.3,0 0,90.7 90.7,0 0,-90.7 -45.4,0 z"
         style="fill:none;stroke:#000000;stroke-width:0.84899998;stroke-linecap:butt;stroke-linejoin:round;stroke-miterlimit:10;stroke-dasharray:none;stroke-opacity:1"
         id="path218"
         inkscape:connector-curvature="0" /></g><g
       id="g220"><text
         transform="matrix(1,0,0,-1,471.3,444.6)"
         style="font-variant:normal;font-weight:bold;font-size:18px;font-family:'Liberation Sans';-inkscape-font-specification:LiberationSans-Bold;writing-mode:lr-tb;fill:#000000;fill-opacity:1;fill-rule:nonzero;stroke:none"
         id="text222"><tspan
           x="0 12.906 22.914 32.922001"
           y="0"
           sodipodi:role="line"
           id="tspan224">Heap</tspan></text>
</g><g
       id="g226"><text
         transform="matrix(1,0,0,-1,432.3,626.5)"
         style="font-variant:normal;font-weight:bold;font-size:18px;font-family:'Liberation Sans';-inkscape-font-specification:LiberationSans-Bold;writing-mode:lr-tb;fill:#000000;fill-opacity:1;fill-rule:nonzero;stroke:none"
         id="text228"><tspan
           x="0 11.988 17.982 27.882 37.889999 47.897999 53.891998 67.877998 77.886002 87.786003 94.788002 100.782 105.768 116.856"
           y="0"
           sodipodi:role="line"
           id="tspan230">Stack-Overflow</tspan></text>
</g><path
       d="m 493.2,269.4 -45.3,0 0,147.4 90.7,0 0,-147.4 -45.4,0 z"
       style="fill:#ffcccc;fill-opacity:1;fill-rule:evenodd;stroke:none"
       id="path232"
       inkscape:connector-curvature="0" /><g
       id="g234"><path
         d="m 493.2,269.4 -45.3,0 0,147.4 90.7,0 0,-147.4 -45.4,0 z"
         style="fill:none;stroke:#000000;stroke-width:0.84899998;stroke-linecap:butt;stroke-linejoin:round;stroke-miterlimit:10;stroke-dasharray:none;stroke-opacity:1"
         id="path236"
         inkscape:connector-curvature="0" /></g><g
       id="g238"><text
         transform="matrix(1,0,0,-1,469.3,336.8)"
         style="font-variant:normal;font-weight:bold;font-size:18px;font-family:'Liberation Sans';-inkscape-font-specification:LiberationSans-Bold;writing-mode:lr-tb;fill:#000000;fill-opacity:1;fill-rule:nonzero;stroke:none"
         id="text240"><tspan
           x="0 11.988 17.982 27.99 37.889999"
           y="0"
           sodipodi:role="line"
           id="tspan242">Stack</tspan></text>
</g><path
       d="m 493.2,406 -44.8,0 0,10.2 89.6,0 0,-10.2 -44.8,0 z"
       style="fill:#c5000b;fill-opacity:1;fill-rule:evenodd;stroke:none"
       id="path244"
       inkscape:connector-curvature="0" /><g
       id="g246"><path
         d="m 445,405.5 -68,0"
         style="fill:none;stroke:#000000;stroke-width:0.80000001;stroke-linecap:butt;stroke-linejoin:round;stroke-miterlimit:10;stroke-dasharray:1.4433, 1.4433, 1.4433, 1.4433;stroke-dashoffset:0;stroke-opacity:1"
         id="path248"
         inkscape:connector-curvature="0" /></g><g
       id="g250"><path
         d="M 566.9,734.3 51,734.3"
         style="fill:none;stroke:#000000;stroke-width:0.80000001;stroke-linecap:butt;stroke-linejoin:round;stroke-miterlimit:10;stroke-dasharray:1.4433, 1.4433, 1.4433, 1.4433;stroke-dashoffset:0;stroke-opacity:1"
         id="path252"
         inkscape:connector-curvature="0" /></g><path
       d="m 175.7,700.3 -45.3,0 0,34 90.7,0 0,-34 -45.4,0 z"
       style="fill:#cccccc;fill-opacity:1;fill-rule:evenodd;stroke:none"
       id="path254"
       inkscape:connector-curvature="0" /><g
       id="g256"><path
         d="m 175.7,700.3 -45.3,0 0,34 90.7,0 0,-34 -45.4,0 z"
         style="fill:none;stroke:#000000;stroke-width:0.84899998;stroke-linecap:butt;stroke-linejoin:round;stroke-miterlimit:10;stroke-dasharray:none;stroke-opacity:1"
         id="path258"
         inkscape:connector-curvature="0" /></g><g
       id="g260"><text
         transform="matrix(1,0,0,-1,143.7,719.4)"
         style="font-variant:normal;font-weight:bold;font-size:10px;font-family:'Liberation Sans';-inkscape-font-specification:LiberationSans-Bold;writing-mode:lr-tb;fill:#000000;fill-opacity:1;fill-rule:nonzero;stroke:none"
         id="text262"><tspan
           x="0 7.1999998 13.8 21 24.299999 31.5 37 43.189999 45.889999 51.389999 54.779999 60.279999"
           y="0"
           sodipodi:role="line"
           id="tspan264">CPU-Register</tspan></text>
</g><g
       id="g266"><text
         transform="matrix(1,0,0,-1,152.5,708.3)"
         style="font-variant:normal;font-weight:bold;font-size:10px;font-family:'Liberation Sans';-inkscape-font-specification:LiberationSans-Bold;writing-mode:lr-tb;fill:#000000;fill-opacity:1;fill-rule:nonzero;stroke:none"
         id="text268"><tspan
           x="0 7.1999998 12.79 15.49 25.49 28.190001 35.389999 40.98"
           y="0"
           sodipodi:role="line"
           id="tspan270">R0 … R31</tspan></text>
</g><path
       d="m 175.7,609.6 -45.3,0 0,90.7 90.7,0 0,-90.7 -45.4,0 z"
       style="fill:#cccccc;fill-opacity:1;fill-rule:evenodd;stroke:none"
       id="path272"
       inkscape:connector-curvature="0" /><g
       id="g274"><path
         d="m 175.7,609.6 -45.3,0 0,90.7 90.7,0 0,-90.7 -45.4,0 z"
         style="fill:none;stroke:#000000;stroke-width:0.84899998;stroke-linecap:butt;stroke-linejoin:round;stroke-miterlimit:10;stroke-dasharray:none;stroke-opacity:1"
         id="path276"
         inkscape:connector-curvature="0" /></g><g
       id="g278"><text
         transform="matrix(1,0,0,-1,147.5,651.5)"
         style="font-variant:normal;font-weight:bold;font-size:10px;font-family:'Liberation Sans';-inkscape-font-specification:LiberationSans-Bold;writing-mode:lr-tb;fill:#000000;fill-opacity:1;fill-rule:nonzero;stroke:none"
         id="text280"><tspan
           x="0 2.7 5.4899998 13.28 16.67 23.870001 29.370001 35.470001 38.259998 43.759998 47.150002 52.650002"
           y="0"
           sodipodi:role="line"
           id="tspan282">I/O-Register</tspan></text>
</g><g
       id="g284"><text
         transform="matrix(1,0,0,-1,92.1,721.7)"
         style="font-variant:normal;font-weight:normal;font-size:10px;font-family:'Liberation Sans';-inkscape-font-specification:LiberationSans;writing-mode:lr-tb;fill:#000000;fill-opacity:1;fill-rule:nonzero;stroke:none"
         id="text286"><tspan
           x="0 5.5900002 10.59 16.09 21.59 27.18"
           y="0"
           sodipodi:role="line"
           id="tspan288">0x0000</tspan></text>
</g><g
       id="g290"><text
         transform="matrix(1,0,0,-1,92.2,704.7)"
         style="font-variant:normal;font-weight:normal;font-size:10px;font-family:'Liberation Sans';-inkscape-font-specification:LiberationSans;writing-mode:lr-tb;fill:#000000;fill-opacity:1;fill-rule:nonzero;stroke:none"
         id="text292"><tspan
           x="0 5.5 10.5 16 21.59 27.09"
           y="0"
           sodipodi:role="line"
           id="tspan294">0x001F</tspan></text>
</g><g
       id="g296"><text
         transform="matrix(1,0,0,-1,92.2,690.5)"
         style="font-variant:normal;font-weight:normal;font-size:10px;font-family:'Liberation Sans';-inkscape-font-specification:LiberationSans;writing-mode:lr-tb;fill:#000000;fill-opacity:1;fill-rule:nonzero;stroke:none"
         id="text298"><tspan
           x="0 5.5 10.59 16.09 21.59 27.09"
           y="0"
           sodipodi:role="line"
           id="tspan300">0x0020</tspan></text>
</g><g
       id="g302"><text
         transform="matrix(1,0,0,-1,92.2,613.9)"
         style="font-variant:normal;font-weight:normal;font-size:10px;font-family:'Liberation Sans';-inkscape-font-specification:LiberationSans;writing-mode:lr-tb;fill:#000000;fill-opacity:1;fill-rule:nonzero;stroke:none"
         id="text304"><tspan
           x="0 5.5 10.59 16.09 21.59 27.09"
           y="0"
           sodipodi:role="line"
           id="tspan306">0x005F</tspan></text>
</g><g
       id="g308"><text
         transform="matrix(1,0,0,-1,92.2,599.7)"
         style="font-variant:normal;font-weight:normal;font-size:10px;font-family:'Liberation Sans';-inkscape-font-specification:LiberationSans;writing-mode:lr-tb;fill:#000000;fill-opacity:1;fill-rule:nonzero;stroke:none"
         id="text310"><tspan
           x="0 5.5900002 10.59 16.09 21.59 27.18"
           y="0"
           sodipodi:role="line"
           id="tspan312">0x0060</tspan></text>
</g><g
       id="g314"><text
         transform="matrix(1,0,0,-1,92.3,273.7)"
         style="font-variant:normal;font-weight:normal;font-size:10px;font-family:'Liberation Sans';-inkscape-font-specification:LiberationSans;writing-mode:lr-tb;fill:#000000;fill-opacity:1;fill-rule:nonzero;stroke:none"
         id="text316"><tspan
           x="0 5.5 10.5 16 21.59 27.09"
           y="0"
           sodipodi:role="line"
           id="tspan318">0x045F</tspan></text>
</g><g
       id="g320"><path
         d="m 130.4,700.3 -45.4,0"
         style="fill:none;stroke:#000000;stroke-width:0.80000001;stroke-linecap:butt;stroke-linejoin:round;stroke-miterlimit:10;stroke-dasharray:1.4433, 1.4433, 1.4433, 1.4433;stroke-dashoffset:0;stroke-opacity:1"
         id="path322"
         inkscape:connector-curvature="0" /></g><g
       id="g324"><text
         transform="matrix(1,0,0,-1,109,771.4)"
         style="font-variant:normal;font-weight:bold;font-size:24px;font-family:'Liberation Sans';-inkscape-font-specification:LiberationSans-Bold;writing-mode:lr-tb;fill:#000000;fill-opacity:1;fill-rule:nonzero;stroke:none"
         id="text326"><tspan
           x="0 17.304001 26.688 41.279999 54.576 61.248001 69.335999 82.632004 95.928001 110.616 123.912 130.584 143.88 158.472 171.84 181.224 187.896 194.56799 215.88 221.688 238.992 246.98399 268.36801 281.664 288.336 294.14401 311.448 319.44 340.82401 354.12 368.71201 382.008 388.67999 402.048"
           y="0"
           sodipodi:role="line"
           id="tspan328">Arbeitsspeicher im Atmel Atmega 16</tspan></text>
</g><g
       id="g330"><text
         transform="matrix(0,1,1,0,116,404)"
         style="font-variant:normal;font-weight:bold;font-size:24px;font-family:'Liberation Sans';-inkscape-font-specification:LiberationSans-Bold;writing-mode:lr-tb;fill:#000000;fill-opacity:1;fill-rule:nonzero;stroke:none"
         id="text332"><tspan
           x="0"
           y="0"
           id="tspan334">S</tspan></text>
<text
         transform="matrix(0,1,1,0,116,419.9)"
         style="font-variant:normal;font-weight:bold;font-size:24px;font-family:'Liberation Sans';-inkscape-font-specification:LiberationSans-Bold;writing-mode:lr-tb;fill:#000000;fill-opacity:1;fill-rule:nonzero;stroke:none"
         id="text336"><tspan
           x="0"
           y="0"
           id="tspan338">R</tspan></text>
<text
         transform="matrix(0,1,1,0,116,437.2)"
         style="font-variant:normal;font-weight:bold;font-size:24px;font-family:'Liberation Sans';-inkscape-font-specification:LiberationSans-Bold;writing-mode:lr-tb;fill:#000000;fill-opacity:1;fill-rule:nonzero;stroke:none"
         id="text340"><tspan
           x="0"
           y="0"
           id="tspan342">A</tspan></text>
<text
         transform="matrix(0,1,1,0,116,454.5)"
         style="font-variant:normal;font-weight:bold;font-size:24px;font-family:'Liberation Sans';-inkscape-font-specification:LiberationSans-Bold;writing-mode:lr-tb;fill:#000000;fill-opacity:1;fill-rule:nonzero;stroke:none"
         id="text344"><tspan
           x="0"
           y="0"
           id="tspan346">M</tspan></text>
</g></g></svg>